<?xml version="1.0" encoding="UTF-8"?>
<svg id="_Слой_2" data-name="Слой 2" xmlns="http://www.w3.org/2000/svg" viewBox="0 0 300 300">
  <defs>
    <style>
      .cls-1, .cls-2 {
        stroke-width: 0px;
      }

      .cls-2 {
        fill: #fff;
      }
    </style>
  </defs>
  <g id="_Слой_1-2" data-name="Слой 1">
    <path class="cls-1" d="m0,0c100,0,200,0,300,0,0,100,0,200,0,300-100,0-200,0-300,0C0,200,0,100,0,0Zm87.58,210.75c-3.86-1.48-3.47-4.49-3.49-7.28-.08-14.65-.11-29.31-.15-43.96,0-2.77-.39-5.62,2.3-8.03-3.85-1.2-7.3-1.78-10.27-3.77-2.16-1.45-2.9-1.04-2.96,1.56-.13,5.33-.04,10.66-.07,15.99-.03,5.3-.05,5.3-4.97,3.22-9.32-3.95-18.55-.02-21.75,9.51-1.87,5.56-2.62,11.33-1.68,17.23,1.83,11.42,8.7,17.67,20.27,16.77,6.26-.49,12.41.19,18.6-.06,1.15-.05,2.34.24,4.16-1.16Zm83.28.8c.26-.29.52-.58.79-.87-3.74-1.86-3.56-5.11-3.57-8.27-.04-7.99.04-15.97-.1-23.96-.11-6.38-2.63-9.39-8.84-10.85-1.77-.41-3.62-.45-5.41-.78-4.62-.83-8.83,1.46-13.33,1.87-3.67.33-7.55,1.78-12.59,2.74,4.29,1.96,4.3,4.96,4.29,8.02-.02,7.65.05,15.31.04,22.96,0,3.26.36,6.69-3.87,8.6,5.49,1.25,15.82.96,18.79-.5-2.62-.93-3.91-2.49-3.88-5.24.09-9.98,0-19.96-.03-29.95,0-1.98.75-3.48,2.38-4.66,5.01-3.63,10.59-1.28,11.26,4.98.92,8.61.82,17.27.75,25.93-.03,3.62-.22,7.17-4.62,9.96h17.95Zm-62.91-18.34s0-.02,0-.03c2.66,0,5.35.24,7.98-.04,7.55-.8,11.46-5.97,10.62-13.48-.58-5.24-3.69-8.46-8.16-10.5-3.66-1.67-7.58-2.44-11.66-2.26-9.07.41-16.67,6.55-18.6,15.38-1.23,5.61-1.08,11.26.6,16.8,1.65,5.44,5.06,9.36,10.43,11.3,6.81,2.46,13.73,2.54,20.54.07,7.13-2.59,8.12-6.29,3.53-12.32-.41-.54-.81-1.19-1.57-.96-.72.21-.75.97-.9,1.61-.38,1.62-.62,3.3-1.24,4.82-1.57,3.84-4.29,6.17-8.68,6.36-7.73.34-13.89-6.67-12.54-14.38.28-1.59,1.11-2.36,2.66-2.37,2.33-.02,4.66,0,6.99,0Zm104.56-.06c3.32-.04,6.63.2,9.93-.61,4.18-1.04,7.61-2.99,8.57-7.38,1.06-4.87.72-9.56-3.33-13.37-8.17-7.68-29.35-8.19-34.27,9.01-1.84,6.44-1.56,12.86.63,19.16,1.36,3.91,3.81,7.16,7.51,9,8.42,4.19,17.05,4.24,25.48.08,4.36-2.15,4.78-4.04,2.49-8.34-.73-1.37-.84-3.84-2.81-3.62-1.64.18-1.15,2.49-1.55,3.84-1.82,6.18-4.8,8.84-10.39,9-6.27.18-10.86-4.62-11.47-11.98-.33-4.03.26-4.71,4.2-4.77,1.66-.02,3.33,0,4.99,0Zm-116.15-33.5c3.46.84,5.94,1.41,7.89.12,1.35-.89-1.71-2.32-.62-3.89.09-.13.08-.32.13-.48,1.35-4.8,2.73-9.59,4.05-14.39.51-1.87,1.64-2.77,3.59-2.76,3.66.03,7.32,0,10.98,0,1.22,0,2.55.27,2.89,1.52,1.68,6.16,5.18,11.97,4.12,18.68-.25,1.56.36,1.8,1.39,1.8,4.24.01,8.52.54,13.63-.58-4.19-1.9-4.77-5.28-5.69-8.41-3.6-12.28-7.13-24.59-10.71-36.87-2.62-9-3.53-9.57-12.88-8.44-.16.02-.33.02-.5.04-1.46.18-2.09.7-1.31,2.29.96,1.95.15,3.88-.4,5.81-3.53,12.47-7,24.95-10.57,37.41-.89,3.11-1.49,6.47-6,8.17Zm73.06,8.24c5.44.71,4.46,4.39,4.52,7.42.14,7.32.1,14.64.14,21.96.02,3,.17,6.01,1.15,8.87,1.48,4.3,5.06,6.29,9.89,5.7,4.49-.55,6.85-2.93,7.49-7.56-5.24,2.18-6.79,1.24-7.42-4.56-.14-1.32-.16-2.66-.17-3.99-.03-6.99-.03-13.98-.04-20.96q0-5.88,5.68-6.66c.23-.03.4-.43.69-.75-.5-.15-.94-.35-1.4-.4q-4.52-.57-5.03-4.86c-.13-1.11.12-2.39-1.66-3.2-1.25,7.43-7.95,6.7-13.85,8.99Zm-7.15-7.57c.21-.36.43-.72.64-1.09-3.61-1.83-2.97-5.06-3.02-7.97-.21-14.66-.33-29.33-.49-43.99-.01-1.33,0-2.68-.17-3.99-.13-.97-.82-1.43-1.79-.88-.72.41-1.36.97-2.09,1.36-5.42,2.96-5.6,3.36-5.58,9.27.06,13,.02,26,.09,39,.02,2.85.02,5.59-2.82,7.41,1.81,1.12,3.35.82,4.82.84,3.47.05,6.94.02,10.41.02Zm58.82-30.33c.15-2.59-4.04-6.33-6.49-5.89-.77.14-1.32.65-1.18,1.33.69,3.52-2.11,4.64-4.24,5.99-8.66,5.54-23.03,4.82-31.16-1.46-1.41-1.09-3.1-2.01-3.19-4.19-.07-1.67-1.23-1.77-2.5-1.41-2.03.57-3.52,1.86-4.43,3.75-.35.73-.65,1.66.21,2.23.76.5,1.19-.31,1.61-.77,1.94-2.15,2.96-.08,3.96.98,9.09,9.63,31.27,11.58,41.76,0,1.32-1.46,2.4-2.29,3.89-.18.54.77,1.44.8,1.75-.37Z"/>
    <path class="cls-2" d="m87.58,210.75c-1.82,1.4-3.01,1.12-4.16,1.16-6.19.25-12.34-.42-18.6.06-11.57.9-18.44-5.35-20.27-16.77-.94-5.9-.19-11.67,1.68-17.23,3.2-9.53,12.43-13.46,21.75-9.51,4.92,2.09,4.94,2.09,4.97-3.22.03-5.33-.06-10.66.07-15.99.06-2.6.8-3.02,2.96-1.56,2.96,2,6.41,2.58,10.27,3.77-2.69,2.41-2.31,5.26-2.3,8.03.04,14.65.07,29.31.15,43.96.01,2.79-.37,5.8,3.49,7.28Zm-14.65-21.43s.02,0,.03,0c0-3.99.02-7.98,0-11.97,0-1.49.08-3.09-1.2-4.17-2.86-2.39-5.95-4.51-9.91-3.65-3.64.79-4.77,3.91-5.46,7.06-1.83,8.4-1.65,16.83,0,25.24.35,1.79,1.11,3.47,2.14,5.02,1.29,1.93,3.03,2.93,5.39,3.08,5.4.35,8.59-2.14,8.96-7.65.29-4.3.06-8.64.06-12.96Z"/>
    <path class="cls-2" d="m170.87,211.55h-17.95c4.39-2.78,4.58-6.34,4.62-9.96.08-8.65.17-17.31-.75-25.93-.67-6.27-6.25-8.62-11.26-4.98-1.63,1.18-2.39,2.68-2.38,4.66.04,9.98.12,19.96.03,29.95-.03,2.75,1.26,4.31,3.88,5.24-2.98,1.45-13.3,1.75-18.79.5,4.23-1.91,3.87-5.34,3.87-8.6.01-7.65-.05-15.31-.04-22.96,0-3.06,0-6.06-4.29-8.02,5.04-.97,8.91-2.41,12.59-2.74,4.5-.41,8.71-2.7,13.33-1.87,1.79.32,3.65.36,5.41.78,6.22,1.46,8.74,4.46,8.84,10.85.13,7.98.05,15.97.1,23.96.02,3.15-.17,6.4,3.57,8.27-.26.29-.52.58-.79.87Z"/>
    <path class="cls-2" d="m107.96,193.21c-2.33,0-4.66-.02-6.99,0-1.55.02-2.38.78-2.66,2.37-1.35,7.71,4.81,14.72,12.54,14.38,4.39-.19,7.11-2.52,8.68-6.36.62-1.52.86-3.2,1.24-4.82.15-.64.19-1.4.9-1.61.76-.23,1.16.42,1.57.96,4.59,6.03,3.61,9.73-3.53,12.32-6.81,2.47-13.73,2.4-20.54-.07-5.38-1.95-8.78-5.86-10.43-11.3-1.68-5.54-1.83-11.19-.6-16.8,1.93-8.83,9.53-14.97,18.6-15.38,4.08-.18,8,.59,11.66,2.26,4.47,2.04,7.57,5.26,8.16,10.5.83,7.5-3.07,12.67-10.62,13.48-2.63.28-5.32.04-7.98.04,0,0,0,.02,0,.03Zm-9.72-9.98c-.06,9.09-.64,8.25,6.99,7.64,9.71-.77,13.99-9.16,9.03-17.55-1.75-2.97-4.36-4.42-7.86-4.3-3.5.11-5.42,2.23-6.63,5.17-1.29,3.11-1.63,6.41-1.54,9.04Z"/>
    <path class="cls-2" d="m212.53,193.15c-1.66,0-3.33-.02-4.99,0-3.95.06-4.54.74-4.2,4.77.61,7.36,5.2,12.16,11.47,11.98,5.59-.16,8.58-2.82,10.39-9,.4-1.35-.09-3.66,1.55-3.84,1.97-.21,2.08,2.25,2.81,3.62,2.29,4.3,1.87,6.19-2.49,8.34-8.43,4.16-17.07,4.11-25.48-.08-3.7-1.84-6.16-5.1-7.51-9-2.19-6.3-2.47-12.72-.63-19.16,4.92-17.2,26.1-16.69,34.27-9.01,4.05,3.81,4.39,8.5,3.33,13.37-.96,4.39-4.39,6.35-8.57,7.38-3.3.82-6.61.58-9.93.61Zm-9.35-10.26q-.21,8.77,7.56,7.82c9.42-1.15,13.47-10.25,8.13-18.16-1.99-2.95-4.8-3.91-8.2-3.6-3.46.31-5.25,2.5-6.3,5.55-1.05,3.04-1.17,6.19-1.19,8.39Z"/>
    <path class="cls-2" d="m96.37,159.65c4.51-1.7,5.11-5.06,6-8.17,3.57-12.46,7.04-24.94,10.57-37.41.55-1.92,1.36-3.85.4-5.81-.78-1.59-.15-2.11,1.31-2.29.16-.02.33-.02.5-.04,9.35-1.13,10.26-.56,12.88,8.44,3.58,12.29,7.11,24.59,10.71,36.87.92,3.13,1.5,6.51,5.69,8.41-5.11,1.12-9.39.59-13.63.58-1.03,0-1.63-.24-1.39-1.8,1.06-6.71-2.44-12.52-4.12-18.68-.34-1.25-1.67-1.52-2.89-1.52-3.66,0-7.32.03-10.98,0-1.95-.01-3.08.89-3.59,2.76-1.32,4.81-2.7,9.6-4.05,14.39-.05.16-.04.35-.13.48-1.1,1.57,1.97,3,.62,3.89-1.95,1.29-4.43.72-7.89-.12Zm20.03-49.07c-2.23,7.9-4.25,15.08-6.29,22.25-.62,2.18.11,3.11,2.39,3.04,2.83-.08,5.67-.11,8.49.01,2.57.11,3.29-.92,2.55-3.31-1.37-4.45-2.62-8.95-4.02-13.39-.83-2.63-1.14-5.48-3.12-8.61Z"/>
    <path class="cls-2" d="m169.43,167.89c5.9-2.3,12.6-1.56,13.85-8.99,1.78.81,1.53,2.09,1.66,3.2q.51,4.29,5.03,4.86c.46.06.9.26,1.4.4-.29.32-.46.72-.69.75q-5.67.79-5.68,6.66c0,6.99.01,13.98.04,20.96,0,1.33.03,2.67.17,3.99.62,5.8,2.18,6.75,7.42,4.56-.64,4.63-2.99,7.01-7.49,7.56-4.83.6-8.41-1.4-9.89-5.7-.98-2.86-1.13-5.87-1.15-8.87-.05-7.32,0-14.64-.14-21.96-.06-3.03.92-6.72-4.52-7.42Z"/>
    <path class="cls-2" d="m162.27,160.32c-3.47,0-6.94.04-10.41-.02-1.47-.02-3.01.28-4.82-.84,2.83-1.82,2.83-4.57,2.82-7.41-.07-13-.03-26-.09-39-.03-5.92.16-6.32,5.58-9.27.73-.4,1.37-.96,2.09-1.36.98-.55,1.66-.09,1.79.88.18,1.31.16,2.66.17,3.99.16,14.66.27,29.33.49,43.99.04,2.91-.59,6.14,3.02,7.97-.21.36-.43.72-.64,1.09Z"/>
    <path class="cls-2" d="m221.09,129.99c-.32,1.17-1.21,1.14-1.75.37-1.49-2.1-2.57-1.28-3.89.18-10.49,11.58-32.68,9.63-41.76,0-1-1.06-2.02-3.13-3.96-.98-.41.46-.85,1.27-1.61.77-.87-.57-.56-1.5-.21-2.23.91-1.89,2.39-3.18,4.43-3.75,1.27-.36,2.42-.27,2.5,1.41.09,2.18,1.79,3.1,3.19,4.19,8.12,6.28,22.5,7,31.16,1.46,2.12-1.36,4.93-2.47,4.24-5.99-.13-.67.42-1.19,1.18-1.33,2.45-.45,6.63,3.29,6.49,5.89Z"/>
    <path class="cls-1" d="m72.94,189.32c0,4.32.23,8.66-.06,12.96-.37,5.51-3.57,8-8.96,7.65-2.36-.15-4.1-1.15-5.39-3.08-1.03-1.54-1.79-3.22-2.14-5.02-1.66-8.41-1.84-16.84,0-25.24.69-3.15,1.82-6.28,5.46-7.06,3.96-.86,7.05,1.26,9.91,3.65,1.29,1.08,1.2,2.68,1.2,4.17.02,3.99,0,7.98,0,11.97,0,0-.02,0-.03,0Z"/>
    <path class="cls-1" d="m98.24,183.24c-.09-2.63.25-5.93,1.54-9.04,1.21-2.93,3.12-5.05,6.63-5.17,3.5-.11,6.1,1.34,7.86,4.3,4.96,8.38.68,16.78-9.03,17.55-7.64.6-7.05,1.44-6.99-7.64Z"/>
    <path class="cls-1" d="m203.18,182.89c.02-2.21.14-5.36,1.19-8.39,1.05-3.05,2.84-5.24,6.3-5.55,3.4-.3,6.2.65,8.2,3.6,5.34,7.91,1.29,17.01-8.13,18.16q-7.77.95-7.56-7.82Z"/>
    <path class="cls-1" d="m116.4,110.58c1.99,3.13,2.29,5.98,3.12,8.61,1.41,4.44,2.65,8.94,4.02,13.39.74,2.39.01,3.42-2.55,3.31-2.83-.12-5.66-.09-8.49-.01-2.28.07-3.01-.87-2.39-3.04,2.05-7.17,4.06-14.35,6.29-22.25Z"/>
  </g>
</svg>