<svg width="103" height="61" viewBox="0 0 103 61" fill="none" xmlns="http://www.w3.org/2000/svg">
<path d="M23.8708 59.6036C22.8706 60.3722 22.2166 60.2185 21.5846 60.2405C18.1827 60.3777 14.8029 60.0099 11.3626 60.2734C5.00403 60.7675 1.22848 57.3362 0.222765 51.0665C-0.293831 47.8273 0.118347 44.6596 1.14604 41.6071C2.90467 36.375 7.97721 34.2174 13.0992 36.386C15.8031 37.5334 15.8141 37.5334 15.8306 34.6182C15.8471 31.6919 15.7976 28.7657 15.869 25.8395C15.902 24.4121 16.3087 24.1815 17.4958 24.983C19.1225 26.0811 21.0185 26.3995 23.1399 27.0528C21.6615 28.3759 21.8704 29.9406 21.8759 31.4614C21.8978 39.5044 21.9143 47.5528 21.9583 55.5958C21.9638 57.1276 21.7549 58.7801 23.8763 59.5926L23.8708 59.6036ZM15.8196 47.8383C15.8196 47.8383 15.8306 47.8383 15.8361 47.8383C15.8361 45.6478 15.8471 43.4572 15.8361 41.2667C15.8361 40.4487 15.88 39.5702 15.1766 38.9773C13.6048 37.6652 11.9066 36.5013 9.73034 36.9734C7.7299 37.4071 7.10889 39.12 6.72968 40.8494C5.72397 45.4611 5.82289 50.0893 6.72968 54.7065C6.92203 55.6892 7.33971 56.6115 7.90576 57.4625C8.61471 58.5221 9.57096 59.0711 10.8679 59.1534C13.8356 59.3456 15.5888 57.9785 15.7921 54.9535C15.9515 52.5928 15.8251 50.2101 15.8251 47.8383H15.8196Z" fill="#DBC2AB"/>
<path d="M69.6445 60.0429H59.7797C62.1923 58.5167 62.2967 56.5622 62.3187 54.5748C62.3627 49.8258 62.4121 45.0714 61.9065 40.3389C61.5383 36.8966 58.4717 35.6065 55.7184 37.6049C54.8226 38.2527 54.4049 39.0762 54.4104 40.1632C54.4324 45.6424 54.4763 51.1215 54.4269 56.6061C54.4104 58.1159 55.1193 58.9723 56.5592 59.4829C54.9215 60.279 49.2499 60.4437 46.2328 59.7574C48.5575 58.7088 48.3596 56.8257 48.3596 55.0359C48.3651 50.836 48.3321 46.6306 48.3376 42.4307C48.3376 40.7507 48.3376 39.1037 45.98 38.0276C48.7498 37.4951 50.8767 36.7045 52.8991 36.5233C55.3721 36.2982 57.6858 35.041 60.2249 35.4967C61.2086 35.6723 62.2308 35.6943 63.198 35.9249C66.6164 36.7264 68.0013 38.3735 68.0562 41.8816C68.1277 46.2627 68.0837 50.6493 68.1112 55.0359C68.1222 56.7653 68.0178 58.5496 70.0732 59.5762C69.9303 59.7355 69.7874 59.8947 69.639 60.0539L69.6445 60.0429Z" fill="#DBC2AB"/>
<path d="M35.0712 49.9742C33.7907 49.9742 32.5102 49.9632 31.2297 49.9742C30.3779 49.9851 29.9217 50.4024 29.7678 51.2753C29.0259 55.5082 32.4113 59.3567 36.6595 59.1701C39.0721 59.0658 40.5669 57.7866 41.4297 55.6784C41.7705 54.8439 41.9024 53.9215 42.1112 53.0321C42.1936 52.6808 42.2156 52.2635 42.6058 52.1482C43.0235 52.022 43.2433 52.3788 43.4686 52.6753C45.9912 55.9858 45.4526 58.0172 41.5287 59.4391C37.7861 60.7951 33.9831 60.7567 30.2405 59.4007C27.2838 58.3301 25.4152 56.1835 24.5085 53.1968C23.5852 50.1553 23.5027 47.0534 24.1787 43.9735C25.2394 39.1257 29.4161 35.7548 34.4007 35.5297C36.643 35.4309 38.7973 35.8536 40.8087 36.7705C43.2653 37.8904 44.969 39.6583 45.2932 42.5351C45.7494 46.6526 43.606 49.491 39.4568 49.9357C38.0114 50.0894 36.5331 49.9577 35.0712 49.9577C35.0712 49.9577 35.0712 49.9687 35.0712 49.9742ZM29.7294 44.495C29.6964 49.4855 29.3777 49.0244 33.5709 48.6895C38.9072 48.2667 41.2594 43.6605 38.5335 39.0543C37.5718 37.4238 36.1374 36.6277 34.2139 36.6936C32.2904 36.754 31.2352 37.9179 30.5702 39.532C29.8613 41.2394 29.6744 43.0511 29.7239 44.495H29.7294Z" fill="#DBC2AB"/>
<path d="M92.5395 49.9415C91.6273 49.9415 90.7095 49.9305 89.7972 49.9415C87.6264 49.9744 87.3021 50.3477 87.489 52.5602C87.8242 56.601 90.3468 59.2362 93.7926 59.1374C96.8647 59.0495 98.5079 57.5892 99.5026 54.1963C99.7224 53.4551 99.4531 52.1869 100.354 52.0881C101.437 51.9728 101.498 53.3234 101.899 54.0755C103.157 56.4362 102.926 57.4739 100.53 58.6543C95.8974 60.9381 91.1491 60.9107 86.5272 58.6103C84.4938 57.6002 83.1419 55.8104 82.4 53.6692C81.1964 50.2105 81.0425 46.6858 82.0537 43.1502C84.7576 33.7072 96.3975 33.9872 100.888 38.2036C103.113 40.2954 103.3 42.8702 102.718 45.5439C102.19 47.954 100.305 49.0301 98.0078 49.5956C96.1942 50.0458 94.3751 49.914 92.5505 49.9305L92.5395 49.9415ZM87.4011 44.3086C87.3241 47.5185 88.709 48.9496 91.5558 48.6019C96.7328 47.9705 98.9585 42.9745 96.0238 38.6319C94.9302 37.0123 93.3859 36.4852 91.5173 36.6554C89.6158 36.8256 88.6321 38.0279 88.055 39.7024C87.478 41.3714 87.412 43.1008 87.4011 44.3086Z" fill="#DBC2AB"/>
<path d="M68.853 36.0733C72.0955 34.8106 75.7776 35.2168 76.4646 31.1377C77.4428 31.5824 77.3054 32.2851 77.3769 32.8945C77.5637 34.4647 78.4852 35.3541 80.1412 35.5627C80.394 35.5957 80.6358 35.7055 80.9106 35.7823C80.7512 35.958 80.6578 36.1776 80.5314 36.1941C78.454 36.4832 77.4135 37.702 77.4098 39.8505C77.4098 43.6881 77.4153 47.5257 77.4318 51.3577C77.4318 52.0879 77.4483 52.8236 77.5253 53.5483C77.866 56.7326 78.7233 57.2541 81.6031 56.0518C81.2514 58.5937 79.9599 59.9003 77.4868 60.2023C74.8324 60.5317 72.8649 59.4337 72.0515 57.0729C71.513 55.5028 71.4305 53.8503 71.4195 52.2032C71.3921 48.1845 71.4195 44.1657 71.3426 40.147C71.3096 38.4835 71.8482 36.4576 68.8585 36.0733H68.853Z" fill="#DBC2AB"/>
<path d="M28.7017 31.5496C31.1802 30.6163 31.51 28.7716 31.9991 27.0642C33.9611 20.2235 35.8681 13.3719 37.808 6.52572C38.1103 5.47162 38.5555 4.41203 38.0279 3.33597C37.5992 2.46304 37.9454 2.17756 38.7478 2.07874C38.8357 2.06776 38.9292 2.06776 39.0226 2.05678C44.1611 1.43639 44.6612 1.74933 46.1011 6.69042C48.0685 13.4378 50.0085 20.1906 51.987 26.9324C52.4926 28.6508 52.8113 30.5065 55.114 31.5496C52.3057 32.1645 49.9536 31.8735 47.6234 31.868C47.0573 31.868 46.7276 31.7363 46.8595 30.8798C47.442 27.196 45.5185 24.0062 44.5952 20.6243C44.4084 19.938 43.6775 19.7898 43.007 19.7898C40.9956 19.7898 38.9841 19.8063 36.9727 19.7898C35.901 19.7843 35.28 20.2784 34.9997 21.3051C34.2743 23.9458 33.5159 26.5756 32.774 29.2053C32.7465 29.2932 32.752 29.3975 32.7025 29.4689C32.098 30.3308 33.7852 31.1159 33.0433 31.6045C31.9716 32.3127 30.6087 31.9998 28.7072 31.5386L28.7017 31.5496ZM39.7096 4.60967C38.484 8.94686 37.3739 12.8888 36.2528 16.8252C35.912 18.022 36.3132 18.5326 37.5662 18.4941C39.1215 18.4502 40.6823 18.4338 42.2321 18.4996C43.6445 18.56 44.0402 17.9945 43.6335 16.6824C42.8806 14.2393 42.1936 11.7688 41.4242 9.33116C40.9681 7.88727 40.7977 6.32259 39.7096 4.60418V4.60967Z" fill="#D5CDCA"/>
<path d="M64.9183 31.9172C63.0113 31.9172 61.1043 31.9392 59.1973 31.9062C58.3894 31.8953 57.5431 32.06 56.5483 31.4451C58.1036 30.4459 58.1036 28.9361 58.0981 27.3769C58.0597 20.2398 58.0816 13.1026 58.0487 5.9655C58.0322 2.71536 58.1366 2.49575 61.1153 0.876168C61.5165 0.656564 61.8682 0.349118 62.2639 0.129514C62.8025 -0.172442 63.1762 0.0801056 63.2476 0.612646C63.3465 1.33185 63.3355 2.07301 63.341 2.8032C63.429 10.8517 63.4894 18.9057 63.6103 26.9542C63.6323 28.5518 63.2861 30.3251 65.27 31.3298C65.1546 31.5274 65.0337 31.7251 64.9183 31.9282V31.9172Z" fill="#D5CDCA"/>
<path d="M97.244 15.2659C97.0682 15.9082 96.5791 15.8918 96.2823 15.469C95.4634 14.3161 94.8699 14.7663 94.1445 15.5678C88.3795 21.9254 76.1845 20.8548 71.1944 15.5678C70.6448 14.9859 70.0843 13.8494 69.0181 15.0298C68.7928 15.2824 68.551 15.7271 68.1333 15.4526C67.6552 15.1396 67.8255 14.629 68.0179 14.2283C68.518 13.1906 69.3313 12.4824 70.4525 12.1695C71.1504 11.9718 71.7824 12.0212 71.8264 12.9436C71.8759 14.1404 72.8101 14.6455 73.5795 15.2439C78.042 18.6917 85.9449 19.087 90.7042 16.0455C91.8692 15.2988 93.4135 14.6894 93.0343 12.7569C92.9629 12.3891 93.2652 12.1036 93.6828 12.0267C95.0293 11.7797 97.3265 13.833 97.2495 15.2604L97.244 15.2659Z" fill="#A79A91"/>
</svg>
